<?xml version="1.0" encoding="iso-8859-1"?>
<!-- Uploaded to: SVG Repo, www.svgrepo.com, Generator: SVG Repo Mixer Tools -->
<svg height="100px" width="100px" version="1.1" id="Layer_1" xmlns="http://www.w3.org/2000/svg" xmlns:xlink="http://www.w3.org/1999/xlink" 
	 viewBox="0 0 512 512" xml:space="preserve">
<g>
	<circle style="fill:#AFD8F2;" cx="373.377" cy="413.118" r="56.603"/>
	<circle style="fill:#AFD8F2;" cx="125.023" cy="413.118" r="56.603"/>
	<path style="fill:#AFD8F2;" d="M360.898,278.607v-93.042h10.061l73.064,69.314c0.021,0.145,0.032,0.291,0.032,0.439v23.289H360.898
		z"/>
</g>
<g>
	<path style="fill:#2D527C;" d="M444.053,293.706h-83.157c-8.339,0-15.099-6.76-15.099-15.099v-93.042
		c0-8.339,6.76-15.099,15.099-15.099h10.061c3.867,0,7.586,1.483,10.391,4.145l73.064,69.314c2.472,2.345,4.078,5.457,4.557,8.83
		c0.121,0.846,0.181,1.708,0.181,2.564v23.289C459.152,286.946,452.392,293.706,444.053,293.706z M375.997,263.507h52.958v-2.111
		l-52.958-50.239L375.997,263.507L375.997,263.507z"/>
	<path style="fill:#2D527C;" d="M167.668,288.015c-8.339,0-15.099-6.76-15.099-15.099v-64.927c0-8.339,6.76-15.099,15.099-15.099
		s15.099,6.76,15.099,15.099v64.927C182.767,281.255,176.007,288.015,167.668,288.015z"/>
	<path style="fill:#2D527C;" d="M200.132,255.552h-64.927c-8.339,0-15.099-6.76-15.099-15.099s6.76-15.099,15.099-15.099h64.927
		c8.339,0,15.099,6.76,15.099,15.099S208.471,255.552,200.132,255.552z"/>
</g>
<path style="fill:#AFD8F2;" d="M306.538,108.577H236.37V77.365c0-19.376,15.708-35.083,35.083-35.083l0,0
	c19.376,0,35.083,15.708,35.083,35.083v31.212H306.538z"/>
<path style="fill:#2D527C;" d="M500.82,217.072c-0.587-0.918-1.271-1.77-2.043-2.541l-92.44-92.488
	c-2.831-2.833-6.674-4.426-10.68-4.426h-34.76c-8.339,0-15.099,6.76-15.099,15.099s6.76,15.099,15.099,15.099h28.505l86.766,86.811
	c3.69,6.269,5.634,13.392,5.634,20.691v142.697h-38.339c-6.955-32.308-35.731-56.601-70.088-56.601s-63.133,24.293-70.088,56.601
	H195.117c-6.955-32.308-35.733-56.601-70.088-56.601s-63.135,24.293-70.088,56.601H30.199V175.303
	c0-47.903,51.078-51.625,66.733-51.625H236.37h55.069v154.93c0,8.339,6.76,15.099,15.099,15.099c8.339,0,15.099-6.76,15.099-15.099
	V108.577V77.365c0-27.671-22.512-50.183-50.183-50.183s-50.183,22.512-50.183,50.183v16.113H96.932
	C38.049,93.478,0,125.596,0,175.303v237.812c0,8.339,6.76,15.099,15.099,15.099h39.841c6.955,32.308,35.731,56.603,70.088,56.603
	s63.133-24.295,70.088-56.603h108.169c6.955,32.308,35.731,56.603,70.088,56.603s63.133-24.295,70.088-56.603h53.438
	c8.339,0,15.099-6.76,15.099-15.099V255.317C512,241.739,508.133,228.513,500.82,217.072z M251.469,77.365
	c0-11.02,8.966-19.984,19.984-19.984s19.984,8.966,19.984,19.984v16.113h-39.97V77.365H251.469z M125.027,454.617
	c-22.885,0-41.502-18.619-41.502-41.504s18.619-41.502,41.502-41.502c22.885,0,41.504,18.619,41.504,41.502
	C166.531,435.998,147.912,454.617,125.027,454.617z M373.374,454.617c-22.882,0-41.498-18.613-41.504-41.493
	c0-0.003,0-0.006,0-0.009c0-0.003,0-0.006,0-0.009c0.006-22.88,18.622-41.493,41.504-41.493c22.885,0,41.502,18.619,41.502,41.502
	C414.876,435.998,396.259,454.617,373.374,454.617z"/>
</svg>