<?xml version="1.0" encoding="iso-8859-1"?>
<!-- Uploaded to: SVG Repo, www.svgrepo.com, Generator: SVG Repo Mixer Tools -->
<svg height="100px" width="100px" version="1.1" id="Layer_1" xmlns="http://www.w3.org/2000/svg" xmlns:xlink="http://www.w3.org/1999/xlink" 
	 viewBox="0 0 512 512" xml:space="preserve">
<path style="fill:#AFD8F2;" d="M236.994,66.254h-68.412V48.66c0-18.892,15.314-34.206,34.206-34.206l0,0
	c18.892,0,34.206,15.314,34.206,34.206V66.254z"/>
<path style="fill:#2D527C;" d="M396.259,483.092h-14.613l22.177-30.923c1.762-2.456,2.709-5.402,2.709-8.424V122.8
	c0-7.982-6.473-14.454-14.454-14.454s-14.454,6.473-14.454,14.454v316.296l-31.552,43.996H165.929l-31.553-43.994V127.447
	l31.552-43.994h230.33c7.982,0,14.454-6.473,14.454-14.454s-6.473-14.454-14.454-14.454H251.448V48.66
	c0-26.83-21.83-48.66-48.66-48.66s-48.66,21.83-48.66,48.66v5.884h-38.387c-7.982,0-14.454,6.473-14.454,14.454
	s6.473,14.454,14.454,14.454h14.613l-22.177,30.923c-1.762,2.456-2.709,5.402-2.709,8.424v320.945c0,3.022,0.947,5.968,2.709,8.424
	l22.178,30.923h-14.615c-7.982,0-14.454,6.473-14.454,14.454S107.759,512,115.741,512h42.768h194.982h42.767
	c7.982,0,14.454-6.473,14.454-14.454S404.242,483.092,396.259,483.092z M183.037,48.66c0-10.891,8.86-19.752,19.752-19.752
	s19.752,8.86,19.752,19.752v3.139h-39.503L183.037,48.66L183.037,48.66z"/>
<path style="fill:#AFD8F2;" d="M200.051,422.245c-0.934,0-1.872-0.192-2.759-0.604c-3.017-1.396-4.521-4.812-3.512-7.983
	l42.966-134.827h-31.967c-2.066,0-4.014-0.971-5.254-2.623c-1.247-1.646-1.642-3.788-1.075-5.776l34.676-121.353
	c0.804-2.823,3.388-4.779,6.329-4.779h58.312c2.174,0,4.212,1.074,5.441,2.868c1.221,1.795,1.487,4.085,0.701,6.11l-29.605,76.13
	h37.646c2.392,0,4.599,1.299,5.763,3.388c1.158,2.092,1.093,4.65-0.168,6.676l-111.897,179.67
	C204.404,421.125,202.264,422.245,200.051,422.245L200.051,422.245z"/>
<path style="fill:#2D527C;" d="M200.049,436.7c-3.076,0-6.048-0.652-8.829-1.941c-9.605-4.449-14.424-15.404-11.216-25.484
	l36.962-115.989h-12.191c-6.581,0-12.866-3.141-16.815-8.402c-3.926-5.177-5.218-12.081-3.416-18.41l34.678-121.364
	c2.557-8.98,10.875-15.262,20.227-15.262h58.312c6.954,0,13.447,3.424,17.371,9.163c3.919,5.751,4.753,13.03,2.249,19.493
	l-21.953,56.454h16.517c7.627,0,14.672,4.14,18.389,10.805c3.713,6.713,3.507,14.876-0.517,21.349L217.916,426.787
	C214.012,433.008,207.341,436.7,200.049,436.7z M215.21,264.377h21.534c4.612,0,8.947,2.2,11.669,5.926
	c2.722,3.723,3.504,8.522,2.103,12.918l-23.844,74.819l71.107-114.175H274.3c-4.771,0-9.236-2.355-11.93-6.293
	c-2.693-3.94-3.271-8.953-1.541-13.4l25.441-65.417h-40.878L215.21,264.377z"/>
</svg>